<?xml version="1.0" encoding="UTF-8" standalone="no"?>
<!-- Created with Inkscape (http://www.inkscape.org/) -->

<svg
   width="80.977966mm"
   height="102.41745mm"
   viewBox="0 0 80.977966 102.41745"
   version="1.1"
   id="svg5"
   inkscape:version="1.1.2 (0a00cf5339, 2022-02-04, custom)"
   sodipodi:docname="noimage.svg"
   xmlns:inkscape="http://www.inkscape.org/namespaces/inkscape"
   xmlns:sodipodi="http://sodipodi.sourceforge.net/DTD/sodipodi-0.dtd"
   xmlns="http://www.w3.org/2000/svg"
   xmlns:svg="http://www.w3.org/2000/svg">
  <sodipodi:namedview
     id="namedview7"
     pagecolor="#ffffff"
     bordercolor="#666666"
     borderopacity="1.0"
     inkscape:pageshadow="2"
     inkscape:pageopacity="0.0"
     inkscape:pagecheckerboard="0"
     inkscape:document-units="mm"
     showgrid="false"
     fit-margin-top="0"
     fit-margin-left="0"
     fit-margin-right="0"
     fit-margin-bottom="0"
     inkscape:zoom="0.41959175"
     inkscape:cx="315.78314"
     inkscape:cy="134.6547"
     inkscape:window-width="1280"
     inkscape:window-height="658"
     inkscape:window-x="-6"
     inkscape:window-y="-6"
     inkscape:window-maximized="1"
     inkscape:current-layer="layer1" />
  <defs
     id="defs2" />
  <g
     inkscape:label="Ebene 1"
     inkscape:groupmode="layer"
     id="layer1"
     transform="translate(-21.307198,-107.69574)">
    <path
       id="rect31"
       style="fill:none;fill-rule:evenodd;stroke:#000000;stroke-width:0.264583"
       d="M 21.439489,107.82803 H 102.15287 V 209.9809 H 21.439489 Z" />
    <g
       aria-label="Kein Bild verfügbar"
       transform="scale(0.9905369,1.0095535)"
       id="text3335"
       style="font-size:6.6243px;line-height:1.25;stroke-width:0.165608">
      <path
         d="m 34.812253,159.24927 h -0.831272 l -1.905133,-2.14449 -0.478709,0.51105 v 1.63344 h -0.640435 v -4.8162 h 0.640435 v 2.51322 l 2.338559,-2.51322 h 0.776285 l -2.150957,2.26416 z"
         id="path4036" />
      <path
         d="m 38.27966,157.50586 h -2.662011 q 0,0.33316 0.10027,0.58221 0.10027,0.24583 0.274935,0.40432 0.168195,0.15526 0.397846,0.23289 0.232885,0.0776 0.511054,0.0776 0.368736,0 0.740706,-0.14555 0.375204,-0.14879 0.533696,-0.29111 h 0.03234 v 0.66308 q -0.30728,0.12938 -0.627497,0.21671 -0.320218,0.0873 -0.672781,0.0873 -0.899197,0 -1.403782,-0.48518 -0.504585,-0.48842 -0.504585,-1.38438 0,-0.88626 0.481943,-1.40702 0.485178,-0.52075 1.274402,-0.52075 0.731002,0 1.125613,0.42695 0.397846,0.42696 0.397846,1.21295 z m -0.591917,-0.46577 q -0.0032,-0.47871 -0.242589,-0.74071 -0.23612,-0.26199 -0.721299,-0.26199 -0.488412,0 -0.779519,0.28787 -0.287873,0.28787 -0.326687,0.71483 z"
         id="path4038" />
      <path
         d="m 39.854872,155.03145 h -0.685719 v -0.63073 h 0.685719 z m -0.03881,4.21782 h -0.60809 v -3.61296 h 0.60809 z"
         id="path4040" />
      <path
         d="m 44.040343,159.24927 h -0.60809 v -2.05716 q 0,-0.24906 -0.02911,-0.46577 -0.02911,-0.21995 -0.10674,-0.34286 -0.08086,-0.13585 -0.232885,-0.20054 -0.152023,-0.0679 -0.394612,-0.0679 -0.249058,0 -0.520758,0.12291 -0.2717,0.12291 -0.520758,0.31375 v 2.69759 H 41.0193 v -3.61296 h 0.60809 v 0.40108 q 0.284638,-0.23612 0.588683,-0.36874 0.304045,-0.13261 0.624263,-0.13261 0.585448,0 0.892728,0.35256 0.307279,0.35256 0.307279,1.01564 z"
         id="path4042" />
      <path
         d="m 51.220981,157.76786 q 0,0.35903 -0.135849,0.63396 -0.13585,0.27494 -0.365501,0.45284 -0.2717,0.21347 -0.598387,0.30404 -0.323452,0.0906 -0.824803,0.0906 h -1.707827 v -4.8162 h 1.426424 q 0.527227,0 0.789223,0.0388 0.261996,0.0388 0.501351,0.16173 0.265231,0.13908 0.384908,0.35903 0.119677,0.21671 0.119677,0.52076 0,0.34285 -0.174664,0.58544 -0.174664,0.23936 -0.465771,0.38491 v 0.0259 q 0.488413,0.10027 0.769816,0.43019 0.281403,0.32669 0.281403,0.82804 z m -1.077095,-2.17037 q 0,-0.17466 -0.05822,-0.29434 -0.05822,-0.11968 -0.187602,-0.19407 -0.152022,-0.0873 -0.368735,-0.10674 -0.216713,-0.0226 -0.536931,-0.0226 h -0.763347 v 1.39084 h 0.828038 q 0.30081,0 0.478709,-0.0291 0.177898,-0.0323 0.329921,-0.12938 0.152022,-0.097 0.213478,-0.24906 0.06469,-0.15525 0.06469,-0.3655 z m 0.410784,2.19624 q 0,-0.2911 -0.08733,-0.46253 -0.08733,-0.17143 -0.316983,-0.29111 -0.155257,-0.0809 -0.378439,-0.10351 -0.219948,-0.0259 -0.536931,-0.0259 h -1.005936 v 1.79192 h 0.847445 q 0.420487,0 0.688953,-0.042 0.268465,-0.0453 0.439895,-0.16172 0.181133,-0.12615 0.26523,-0.28787 0.0841,-0.16173 0.0841,-0.41726 z"
         id="path4044" />
      <path
         d="m 52.734737,155.03145 h -0.685719 v -0.63073 h 0.685719 z m -0.03881,4.21782 h -0.60809 v -3.61296 h 0.60809 z"
         id="path4046" />
      <path
         d="m 54.513725,159.24927 h -0.60809 v -5.03292 h 0.60809 z"
         id="path4048" />
      <path
         d="m 58.647443,159.24927 h -0.60809 v -0.37844 q -0.261996,0.22642 -0.546634,0.35256 -0.284638,0.12615 -0.617794,0.12615 -0.646904,0 -1.028578,-0.49812 -0.378439,-0.49811 -0.378439,-1.38114 0,-0.4593 0.129381,-0.81833 0.132615,-0.35904 0.355797,-0.61133 0.219948,-0.24582 0.511055,-0.3752 0.294341,-0.12938 0.60809,-0.12938 0.284638,0 0.504585,0.0614 0.219948,0.0582 0.462537,0.18437 v -1.56551 h 0.60809 z m -0.60809,-0.8895 v -2.07332 q -0.245824,-0.10998 -0.439895,-0.15203 -0.194071,-0.0421 -0.423722,-0.0421 -0.511055,0 -0.795693,0.3558 -0.284638,0.3558 -0.284638,1.00917 0,0.64367 0.219948,0.98006 0.219947,0.33316 0.705125,0.33316 0.258762,0 0.523993,-0.11321 0.265231,-0.11644 0.494882,-0.29758 z"
         id="path4050" />
      <path
         d="m 65.297618,155.63631 -1.462003,3.61296 H 63.22429 l -1.4523,-3.61296 h 0.659842 l 1.119145,2.87549 1.109441,-2.87549 z"
         id="path4052" />
      <path
         d="m 69.059369,157.50586 h -2.662011 q 0,0.33316 0.10027,0.58221 0.10027,0.24583 0.274934,0.40432 0.168195,0.15526 0.397846,0.23289 0.232886,0.0776 0.511055,0.0776 0.368735,0 0.740705,-0.14555 0.375204,-0.14879 0.533696,-0.29111 h 0.03234 v 0.66308 q -0.307279,0.12938 -0.627497,0.21671 -0.320218,0.0873 -0.67278,0.0873 -0.899197,0 -1.403783,-0.48518 -0.504585,-0.48842 -0.504585,-1.38438 0,-0.88626 0.481944,-1.40702 0.485178,-0.52075 1.274401,-0.52075 0.731002,0 1.125614,0.42695 0.397846,0.42696 0.397846,1.21295 z m -0.591918,-0.46577 q -0.0032,-0.47871 -0.242589,-0.74071 -0.23612,-0.26199 -0.721298,-0.26199 -0.488413,0 -0.77952,0.28787 -0.287872,0.28787 -0.326686,0.71483 z"
         id="path4054" />
      <path
         d="m 72.235666,156.29938 h -0.03234 q -0.13585,-0.0323 -0.265231,-0.0453 -0.126146,-0.0162 -0.30081,-0.0162 -0.281404,0 -0.5434,0.12614 -0.261996,0.12292 -0.504585,0.32022 v 2.56498 h -0.60809 v -3.61296 H 70.5893 V 156.17 q 0.362266,-0.2911 0.6372,-0.41078 0.278169,-0.12291 0.566042,-0.12291 0.158491,0 0.229651,0.01 0.07116,0.006 0.213478,0.0291 z"
         id="path4056" />
      <path
         d="m 74.752125,154.80504 h -0.03235 q -0.10027,-0.0291 -0.261996,-0.0582 -0.161726,-0.0323 -0.284638,-0.0323 -0.391377,0 -0.569276,0.17466 -0.174664,0.17143 -0.174664,0.62427 v 0.12291 h 1.096503 v 0.51105 h -1.077096 v 3.10191 h -0.60809 v -3.10191 h -0.410784 v -0.51105 h 0.410784 v -0.11968 q 0,-0.64367 0.320218,-0.98653 0.320217,-0.34609 0.925073,-0.34609 0.203774,0 0.365501,0.0194 0.16496,0.0194 0.30081,0.0453 z"
         id="path4058" />
      <path
         d="m 78.132198,159.24927 h -0.60809 v -0.40108 q -0.307279,0.24259 -0.588683,0.37197 -0.281403,0.12938 -0.621028,0.12938 -0.569276,0 -0.886259,-0.3461 -0.316983,-0.34932 -0.316983,-1.0221 v -2.34503 h 0.60809 v 2.05715 q 0,0.27494 0.02588,0.47224 0.02588,0.19407 0.109974,0.33316 0.08733,0.14232 0.226417,0.20701 0.139084,0.0647 0.404315,0.0647 0.23612,0 0.514289,-0.12291 0.281403,-0.12292 0.523992,-0.31375 v -2.69759 h 0.60809 z m -0.504585,-4.21782 h -0.64367 v -0.63073 h 0.64367 z m -1.335858,0 h -0.643669 v -0.63073 h 0.643669 z"
         id="path4060" />
      <path
         d="m 82.259448,158.83848 q 0,0.91861 -0.417253,1.3488 -0.417254,0.43019 -1.284105,0.43019 -0.287873,0 -0.562807,-0.042 -0.2717,-0.0388 -0.536931,-0.11321 v -0.62102 h 0.03235 q 0.148788,0.0582 0.47224,0.14231 0.323452,0.0873 0.646904,0.0873 0.310514,0 0.514289,-0.0744 0.203775,-0.0744 0.316983,-0.20701 0.113208,-0.12614 0.161726,-0.30404 0.04852,-0.1779 0.04852,-0.39785 v -0.32992 q -0.274934,0.21995 -0.527227,0.32992 -0.249058,0.10674 -0.637201,0.10674 -0.646904,0 -1.028578,-0.46577 -0.378439,-0.46901 -0.378439,-1.31969 0,-0.46577 0.129381,-0.80216 0.132616,-0.33962 0.359032,-0.58544 0.210244,-0.22966 0.511055,-0.3558 0.30081,-0.12938 0.598386,-0.12938 0.313749,0 0.523993,0.0647 0.213478,0.0615 0.449598,0.19083 l 0.03881,-0.15525 h 0.569276 z m -0.60809,-0.58221 v -1.96982 q -0.242589,-0.10998 -0.452833,-0.15526 -0.207009,-0.0485 -0.414019,-0.0485 -0.501351,0 -0.789223,0.33639 -0.287872,0.33639 -0.287872,0.97683 0,0.60809 0.213478,0.92184 0.213478,0.31374 0.70836,0.31374 0.265231,0 0.530462,-0.10027 0.268465,-0.1035 0.491647,-0.27493 z"
         id="path4062" />
      <path
         d="m 86.635757,157.41529 q 0,0.45284 -0.129381,0.8151 -0.126146,0.36227 -0.342859,0.60809 -0.229651,0.25553 -0.504586,0.38491 -0.274934,0.12615 -0.604855,0.12615 -0.30728,0 -0.536931,-0.0744 -0.229651,-0.0712 -0.452833,-0.19407 l -0.03881,0.1682 h -0.569276 v -5.03292 h 0.60809 v 1.7984 q 0.255527,-0.21025 0.5434,-0.34286 0.287872,-0.13585 0.646904,-0.13585 0.640435,0 1.009171,0.49164 0.37197,0.49165 0.37197,1.38761 z m -0.627497,0.0162 q 0,-0.64691 -0.213479,-0.98006 -0.213478,-0.33639 -0.688953,-0.33639 -0.265231,0 -0.53693,0.11644 -0.2717,0.11321 -0.504586,0.29434 v 2.07009 q 0.258762,0.11645 0.44313,0.16173 0.187602,0.0453 0.423722,0.0453 0.504585,0 0.789223,-0.32992 0.287873,-0.33315 0.287873,-1.04151 z"
         id="path4064" />
      <path
         d="m 90.391038,159.24927 h -0.604856 v -0.38491 q -0.08086,0.055 -0.219947,0.15526 -0.13585,0.097 -0.265231,0.15525 -0.152023,0.0744 -0.349328,0.12292 -0.197306,0.0517 -0.462537,0.0517 -0.488413,0 -0.828038,-0.32345 -0.339624,-0.32346 -0.339624,-0.82481 0,-0.41078 0.174664,-0.66307 0.177899,-0.25553 0.504585,-0.40108 0.329921,-0.14556 0.792458,-0.19731 0.462537,-0.0517 0.992998,-0.0776 v -0.0938 q 0,-0.20701 -0.07439,-0.34286 -0.07116,-0.13585 -0.207009,-0.21348 -0.129381,-0.0744 -0.310514,-0.10027 -0.181134,-0.0259 -0.378439,-0.0259 -0.239355,0 -0.533696,0.0647 -0.294342,0.0615 -0.60809,0.18113 h -0.03235 v -0.61779 q 0.177899,-0.0485 0.514289,-0.10674 0.33639,-0.0582 0.663077,-0.0582 0.381674,0 0.663077,0.0647 0.284638,0.0614 0.491647,0.21347 0.203775,0.14879 0.310514,0.38491 0.10674,0.23612 0.10674,0.58545 z m -0.604856,-0.8895 v -1.00593 q -0.278169,0.0162 -0.656608,0.0485 -0.375204,0.0323 -0.595152,0.0938 -0.261996,0.0744 -0.423722,0.23288 -0.161726,0.15526 -0.161726,0.43019 0,0.31052 0.187602,0.46901 0.187602,0.15526 0.57251,0.15526 0.320218,0 0.585449,-0.12292 0.265231,-0.12614 0.491647,-0.30081 z"
         id="path4066" />
      <path
         d="m 93.816393,156.29938 h -0.03235 q -0.13585,-0.0323 -0.265231,-0.0453 -0.126147,-0.0162 -0.300811,-0.0162 -0.281403,0 -0.543399,0.12614 -0.261997,0.12292 -0.504586,0.32022 v 2.56498 h -0.60809 v -3.61296 h 0.60809 V 156.17 q 0.362267,-0.2911 0.637201,-0.41078 0.278169,-0.12291 0.566041,-0.12291 0.158492,0 0.229651,0.01 0.07116,0.006 0.213479,0.0291 z"
         id="path4068" />
    </g>
  </g>
</svg>
